<svg width="1440" height="1024" viewBox="0 0 1440 1024" fill="none" xmlns="http://www.w3.org/2000/svg">
<g clip-path="url(#clip0_1602_39)">
<rect width="1440" height="1024" fill="#FAFAFA"/>
<path d="M149.298 600.924C149.538 600.268 150.466 600.268 150.706 600.924L151.423 602.882C151.985 604.418 152.875 605.813 154.032 606.97C155.189 608.126 156.584 609.017 158.12 609.579L160.078 610.296C160.735 610.536 160.735 611.464 160.078 611.704L158.12 612.421C156.584 612.983 155.189 613.874 154.032 615.03C152.875 616.187 151.985 617.582 151.423 619.118L150.706 621.076C150.466 621.733 149.538 621.733 149.298 621.076L148.581 619.118C148.018 617.582 147.128 616.187 145.971 615.03C144.815 613.874 143.42 612.983 141.884 612.421L139.926 611.704C139.27 611.464 139.27 610.536 139.926 610.296L141.884 609.579C143.42 609.017 144.815 608.126 145.971 606.97C147.128 605.813 148.018 604.418 148.581 602.882L149.298 600.924Z" fill="black"/>
<path d="M1221.3 458.924C1221.54 458.268 1222.47 458.268 1222.71 458.924L1223.42 460.882C1223.98 462.418 1224.88 463.813 1226.03 464.97C1227.19 466.126 1228.58 467.017 1230.12 467.579L1232.08 468.296C1232.73 468.536 1232.73 469.464 1232.08 469.704L1230.12 470.421C1228.58 470.983 1227.19 471.874 1226.03 473.03C1224.88 474.187 1223.98 475.582 1223.42 477.118L1222.71 479.076C1222.47 479.733 1221.54 479.733 1221.3 479.076L1220.58 477.118C1220.02 475.582 1219.13 474.187 1217.97 473.03C1216.81 471.874 1215.42 470.983 1213.88 470.421L1211.93 469.704C1211.27 469.464 1211.27 468.536 1211.93 468.296L1213.88 467.579C1215.42 467.017 1216.81 466.126 1217.97 464.97C1219.13 463.813 1220.02 462.418 1220.58 460.882L1221.3 458.924Z" fill="black"/>
<path d="M1220.3 820.65C1220.88 819.064 1223.12 819.064 1223.7 820.65L1225.43 825.382C1226.79 829.094 1228.95 832.465 1231.74 835.26C1234.54 838.055 1237.91 840.207 1241.62 841.566L1246.35 843.299C1247.94 843.879 1247.94 846.121 1246.35 846.701L1241.62 848.434C1237.91 849.793 1234.54 851.945 1231.74 854.74C1228.95 857.535 1226.79 860.906 1225.43 864.619L1223.7 869.35C1223.12 870.938 1220.88 870.938 1220.3 869.35L1218.57 864.619C1217.21 860.906 1215.06 857.535 1212.26 854.74C1209.46 851.945 1206.09 849.793 1202.38 848.434L1197.65 846.701C1196.06 846.121 1196.06 843.879 1197.65 843.299L1202.38 841.566C1206.09 840.207 1209.46 838.055 1212.26 835.26C1215.06 832.465 1217.21 829.094 1218.57 825.382L1220.3 820.65Z" fill="black"/>
<path d="M1041 596.274C1041.34 597.204 1042.66 597.204 1043 596.274L1044.01 593.5C1044.81 591.324 1046.07 589.348 1047.71 587.71C1049.35 586.071 1051.32 584.81 1053.5 584.013L1056.27 582.997C1057.2 582.657 1057.2 581.343 1056.27 581.003L1053.5 579.987C1051.32 579.19 1049.35 577.929 1047.71 576.29C1046.07 574.652 1044.81 572.676 1044.01 570.499L1043 567.726C1042.66 566.795 1041.34 566.795 1041 567.726L1039.99 570.499C1039.19 572.676 1037.93 574.652 1036.29 576.29C1034.65 577.929 1032.67 579.19 1030.5 579.987L1027.72 581.003C1026.8 581.343 1026.8 582.657 1027.72 582.997L1030.5 584.013C1032.67 584.81 1034.65 586.071 1036.29 587.71C1037.93 589.348 1039.19 591.324 1039.99 593.5L1041 596.274Z" fill="black"/>
<path d="M353.001 528.274C353.341 529.204 354.656 529.204 354.996 528.274L356.012 525.5C356.808 523.324 358.07 521.348 359.708 519.71C361.347 518.071 363.323 516.81 365.499 516.013L368.273 514.997C369.204 514.657 369.204 513.343 368.273 513.003L365.499 511.987C363.323 511.19 361.347 509.929 359.708 508.29C358.07 506.652 356.808 504.676 356.012 502.499L354.996 499.726C354.656 498.795 353.341 498.795 353.001 499.726L351.986 502.499C351.189 504.676 349.927 506.652 348.289 508.29C346.65 509.929 344.674 511.19 342.498 511.987L339.724 513.003C338.795 513.343 338.795 514.657 339.724 514.997L342.498 516.013C344.674 516.81 346.65 518.071 348.289 519.71C349.927 521.348 351.189 523.324 351.986 525.5L353.001 528.274Z" fill="black"/>
<path d="M965.237 542.084C965.497 541.374 966.502 541.374 966.762 542.084L967.539 544.206C968.148 545.87 969.113 547.381 970.366 548.634C971.619 549.887 973.13 550.851 974.794 551.461L976.915 552.237C977.627 552.497 977.627 553.503 976.915 553.763L974.794 554.539C973.13 555.149 971.619 556.113 970.366 557.366C969.113 558.619 968.148 560.131 967.539 561.795L966.762 563.916C966.502 564.627 965.497 564.627 965.237 563.916L964.46 561.795C963.851 560.131 962.886 558.619 961.633 557.366C960.38 556.113 958.869 555.149 957.205 554.539L955.084 553.763C954.373 553.503 954.373 552.497 955.084 552.237L957.205 551.461C958.869 550.851 960.38 549.887 961.633 548.634C962.886 547.381 963.851 545.87 964.46 544.206L965.237 542.084Z" fill="black"/>
<path d="M2261 1153C1813 989 1749.13 1029 1209 1029C668.866 1029 705 1029 209 1153C209 612.866 646.866 175 1187 175C1727.13 175 2261 612.866 2261 1153Z" fill="url(#paint0_radial_1602_39)"/>
<circle cx="1222" cy="623" r="228.659" stroke="#312251" stroke-opacity="0.1" stroke-width="2"/>
<circle cx="1222" cy="623" r="275" stroke="#312251" stroke-opacity="0.1" stroke-width="2"/>
</g>
<defs>
<radialGradient id="paint0_radial_1602_39" cx="0" cy="0" r="1" gradientUnits="userSpaceOnUse" gradientTransform="translate(1187 1153) rotate(90) scale(978 978)">
<stop stop-color="#1300EE" stop-opacity="0.17"/>
<stop offset="1" stop-color="#003288" stop-opacity="0"/>
</radialGradient>
<clipPath id="clip0_1602_39">
<rect width="1440" height="1024" fill="white"/>
</clipPath>
</defs>
</svg>
